<svg xmlns="http://www.w3.org/2000/svg" xmlns:xlink="http://www.w3.org/1999/xlink" width="500" zoomAndPan="magnify" viewBox="0 0 375 374.999991" height="500" preserveAspectRatio="xMidYMid meet" version="1.0"><defs><clipPath id="438ddc9afe"><path d="M 23.066406 218.964844 L 104 218.964844 L 104 242 L 23.066406 242 Z M 23.066406 218.964844 " clip-rule="nonzero"/></clipPath><clipPath id="7d0eb97040"><path d="M 57 269 L 71 269 L 71 282.714844 L 57 282.714844 Z M 57 269 " clip-rule="nonzero"/></clipPath></defs><path fill="#000000" d="M 81.082031 258.195312 C 76.582031 253.746094 70.394531 250.988281 63.566406 250.988281 C 56.742188 250.988281 50.550781 253.746094 46.050781 258.195312 L 45.910156 258.339844 L 51.585938 264 L 51.726562 263.859375 C 54.773438 260.855469 58.957031 258.996094 63.566406 258.996094 C 68.179688 258.996094 72.363281 260.855469 75.410156 263.859375 L 75.550781 264 L 81.226562 258.339844 Z M 81.082031 258.195312 " fill-opacity="1" fill-rule="nonzero"/><path fill="#000000" d="M 92.429688 246.878906 C 85.023438 239.527344 74.820312 234.976562 63.566406 234.976562 C 52.316406 234.976562 42.113281 239.527344 34.703125 246.878906 L 34.5625 247.023438 L 40.234375 252.679688 L 40.378906 252.539062 C 46.332031 246.636719 54.53125 242.980469 63.566406 242.980469 C 72.605469 242.980469 80.800781 246.636719 86.757812 252.539062 L 86.898438 252.679688 L 92.570312 247.023438 Z M 92.429688 246.878906 " fill-opacity="1" fill-rule="nonzero"/><g clip-path="url(#438ddc9afe)"><path fill="#000000" d="M 103.777344 235.5625 C 93.464844 225.3125 79.246094 218.964844 63.566406 218.964844 C 47.890625 218.964844 33.671875 225.3125 23.359375 235.5625 L 23.214844 235.703125 L 28.890625 241.363281 L 29.03125 241.21875 C 37.890625 232.417969 50.101562 226.96875 63.566406 226.96875 C 77.03125 226.96875 89.242188 232.417969 98.105469 241.222656 L 98.246094 241.363281 L 103.921875 235.703125 Z M 103.777344 235.5625 " fill-opacity="1" fill-rule="nonzero"/></g><g clip-path="url(#7d0eb97040)"><path fill="#000000" d="M 70.070312 275.984375 C 70.070312 275.5625 70.03125 275.140625 69.949219 274.726562 C 69.863281 274.3125 69.742188 273.910156 69.582031 273.519531 C 69.417969 273.128906 69.21875 272.757812 68.984375 272.40625 C 68.75 272.054688 68.480469 271.730469 68.179688 271.429688 C 67.882812 271.132812 67.554688 270.863281 67.203125 270.628906 C 66.851562 270.394531 66.476562 270.195312 66.085938 270.035156 C 65.695312 269.871094 65.289062 269.75 64.875 269.667969 C 64.460938 269.585938 64.039062 269.542969 63.617188 269.542969 C 63.191406 269.542969 62.773438 269.585938 62.355469 269.667969 C 61.941406 269.75 61.535156 269.871094 61.144531 270.035156 C 60.753906 270.195312 60.382812 270.394531 60.027344 270.628906 C 59.675781 270.863281 59.351562 271.132812 59.050781 271.429688 C 58.75 271.730469 58.484375 272.054688 58.246094 272.40625 C 58.011719 272.757812 57.8125 273.128906 57.652344 273.519531 C 57.488281 273.910156 57.367188 274.3125 57.28125 274.726562 C 57.199219 275.140625 57.160156 275.5625 57.160156 275.984375 C 57.160156 276.40625 57.199219 276.824219 57.28125 277.238281 C 57.367188 277.65625 57.488281 278.058594 57.652344 278.449219 C 57.8125 278.839844 58.011719 279.210938 58.246094 279.5625 C 58.484375 279.914062 58.75 280.238281 59.050781 280.535156 C 59.351562 280.835938 59.675781 281.101562 60.027344 281.339844 C 60.382812 281.574219 60.753906 281.769531 61.144531 281.933594 C 61.535156 282.09375 61.941406 282.21875 62.355469 282.300781 C 62.773438 282.382812 63.191406 282.421875 63.617188 282.421875 C 64.039062 282.421875 64.460938 282.382812 64.875 282.300781 C 65.289062 282.21875 65.695312 282.09375 66.085938 281.933594 C 66.476562 281.769531 66.851562 281.574219 67.203125 281.339844 C 67.554688 281.101562 67.882812 280.835938 68.179688 280.535156 C 68.480469 280.238281 68.75 279.914062 68.984375 279.5625 C 69.21875 279.210938 69.417969 278.839844 69.582031 278.449219 C 69.742188 278.058594 69.863281 277.65625 69.949219 277.238281 C 70.03125 276.824219 70.070312 276.40625 70.070312 275.984375 " fill-opacity="1" fill-rule="nonzero"/></g><path fill="#64748b" d="M 49.652344 300 C 49.652344 300 173.65625 299.65625 229.140625 299.28125 C 265.710938 293.011719 269.386719 261.523438 269.011719 244.335938 C 334.289062 247.859375 380.339844 202.679688 368.746094 142.574219 C 357.152344 82.46875 295.859375 75 295.859375 75 L 21.375 75 C 12.316406 75 11.191406 86.746094 11.191406 86.746094 C 11.191406 86.746094 9.960938 194.503906 10.859375 260.683594 C 13.320312 296.355469 49.652344 300 49.652344 300 Z M 270.179688 118.09375 L 296.730469 118.09375 C 296.730469 118.09375 326.296875 126.210938 326.296875 156.914062 C 326.296875 185.070312 311.519531 196.15625 295.410156 201.285156 C 281.492188 202.996094 270.179688 201.691406 270.179688 201.691406 Z M 74.503906 138.988281 C 88.769531 124.125 119.582031 123.015625 139.949219 144.976562 C 139.949219 144.976562 163.425781 118.753906 191.972656 130.800781 C 220.53125 142.859375 219.449219 175.09375 202.816406 194.234375 C 184.125 215.609375 142.652344 252.734375 142.652344 252.734375 C 142.652344 252.734375 140.835938 254.488281 138 253.078125 C 136.859375 252.238281 136.378906 251.761719 136.378906 251.761719 C 129.734375 245.28125 85.859375 206.894531 75.871094 193.589844 C 65.234375 179.386719 60.253906 153.855469 74.503906 138.988281 Z M 74.503906 138.988281 " fill-opacity="1" fill-rule="nonzero"/></svg>